<svg width="18" height="18" viewBox="0 0 18 18" fill="none" xmlns="http://www.w3.org/2000/svg">
<path fill-rule="evenodd" clip-rule="evenodd" d="M16 9C16 12.866 12.866 16 9 16C5.13401 16 2 12.866 2 9C2 5.13401 5.13401 2 9 2C12.866 2 16 5.13401 16 9ZM18 9C18 13.9706 13.9706 18 9 18C4.02944 18 0 13.9706 0 9C0 4.02944 4.02944 0 9 0C13.9706 0 18 4.02944 18 9ZM12.6915 7.72237C13.0905 7.34047 13.1043 6.70745 12.7224 6.3085C12.3405 5.90954 11.7075 5.89572 11.3085 6.27763L7.82144 9.61567L6.69151 8.53402C6.29255 8.15212 5.65954 8.16594 5.27763 8.56489C4.89572 8.96385 4.90954 9.59686 5.3085 9.97877L7.12994 11.7224C7.51663 12.0925 8.12625 12.0925 8.51294 11.7224L12.6915 7.72237Z" fill="white"/>
</svg>
